inDegrees=yes
name=coleta2_motion.mot
DataType=double
version=3
OpenSimVersion=4.4-2022-07-23-0e9fedc
endheader
time	pelvis_tilt	pelvis_tx	pelvis_ty	hip_flexion_r	knee_angle_r	ankle_angle_r	hip_flexion_l	knee_angle_l	ankle_angle_l	lumbar_extension	gearToGround_coord_0	rightPedalToGear_coord_0	leftPedalToGear_coord_0
6.294965028762817	40.72081696758041	-0.7	0.0500000000000003	97.92081696758032	-99.16442784361151	-1.039076492892845e-12	80.38799999999991	-84.66000000000004	5.05043721578303e-13	2.071017320375504e-12	0	-114.0000000000003	-139.067795130823
6.298971891403198	40.71984734080385	-0.7	0.0500000000000003	97.91984734080374	-98.69689645700574	-1.039076492892845e-12	80.38799999999991	-84.66000000000004	5.05043721578303e-13	2.071017320375504e-12	0	-114.0000000000003	-139.067795130823
6.302970886230469	41.77655335467254	-0.7	0.0500000000000003	98.97655335467246	-100.8068516936424	-1.039076492892845e-12	80.38799999999991	-84.66000000000004	5.05043721578303e-13	2.071017320375504e-12	0	-114.0000000000003	-139.067795130823
6.308973073959351	41.77488067678247	-0.7	0.0500000000000003	98.9748806767824	-99.71583079543308	-1.039076492892845e-12	80.38799999999991	-84.66000000000004	5.05043721578303e-13	2.071017320375504e-12	0	-114.0000000000003	-139.067795130823
6.315963983535767	41.77486666714493	-0.7	0.0500000000000003	98.97486666714481	-98.74531399101846	-1.039076492892845e-12	80.38799999999991	-84.66000000000004	5.05043721578303e-13	2.071017320375504e-12	0	-114.0000000000003	-139.067795130823
6.321959972381592	41.77489668475732	-0.7	0.0500000000000003	98.97489668475717	-98.0715846151335	-1.039076492892845e-12	80.38799999999991	-84.66000000000004	5.05043721578303e-13	2.071017320375504e-12	0	-114.0000000000003	-139.067795130823
6.32696795463562	42.18273876199602	-0.7	0.0500000000000003	99.38273876199591	-98.88565636294456	-1.039076492892845e-12	80.38799999999991	-84.66000000000004	5.05043721578303e-13	2.071017320375504e-12	0	-114.0000000000003	-139.067795130823
6.33096981048584	42.18206580151116	-0.7	0.0500000000000003	99.38206580151103	-98.17977061431144	-1.039076492892845e-12	80.38799999999991	-84.66000000000004	5.05043721578303e-13	2.071017320375504e-12	0	-114.0000000000003	-139.067795130823
6.335962772369385	43.44013315714425	-0.7	0.0500000000000003	100.6401331571441	-100.6916771479411	-1.039076492892845e-12	80.38799999999991	-84.66000000000004	5.05043721578303e-13	2.071017320375504e-12	0	-114.0000000000003	-139.067795130823
6.340954780578613	43.43804857125973	-0.7	0.0500000000000003	100.6380485712596	-98.48296017638199	-1.039076492892845e-12	80.38799999999991	-84.66000000000004	5.05043721578303e-13	2.071017320375504e-12	0	-114.0000000000003	-139.067795130823
6.34497594833374	43.79398528405336	-0.7	0.0500000000000003	100.9939852840533	-99.19388192354342	-1.039076492892845e-12	80.38799999999991	-84.66000000000004	5.05043721578303e-13	2.071017320375504e-12	0	-114.0000000000003	-139.067795130823
6.350959777832031	43.793836080745	-0.7	0.0500000000000003	100.9938360807449	-97.74727079100255	-1.039076492892845e-12	80.38799999999991	-84.66000000000004	5.05043721578303e-13	2.071017320375504e-12	0	-114.0000000000003	-139.067795130823
6.357980012893677	44.48312704818301	-0.7	0.0500000000000003	101.6831270481829	-99.12513007746675	-1.039076492892845e-12	80.38799999999991	-84.66000000000004	5.05043721578303e-13	2.071017320375504e-12	0	-114.0000000000003	-139.067795130823
6.364938020706177	44.77126194456088	-0.7	0.0500000000000003	101.9712619445607	-99.70050024401297	-1.039076492892845e-12	80.38799999999991	-84.66000000000004	5.05043721578303e-13	2.071017320375504e-12	0	-114.0000000000003	-139.067795130823
6.369951009750366	44.77062909730838	-0.7	0.0500000000000003	101.9706290973082	-97.69731366046658	-1.039076492892845e-12	80.38799999999991	-84.66000000000004	5.05043721578303e-13	2.071017320375504e-12	0	-114.0000000000003	-139.067795130823
6.374961853027344	45.02818527133229	-0.7	0.0500000000000003	102.2281852713321	-98.21145659370936	-1.039076492892845e-12	80.38799999999991	-84.66000000000004	5.05043721578303e-13	2.071017320375504e-12	0	-114.0000000000003	-139.067795130823
6.378963947296143	45.02807087928024	-0.7	0.0500000000000003	102.2280708792801	-97.10703046695244	-1.039076492892845e-12	80.38799999999991	-84.66000000000004	5.05043721578303e-13	2.071017320375504e-12	0	-114.0000000000003	-139.067795130823
6.388952970504761	45.25860287192291	-0.7	0.0500000000000003	102.4586028719227	-97.56754022965418	-1.039076492892845e-12	80.38799999999991	-84.66000000000004	5.05043721578303e-13	2.071017320375504e-12	0	-114.0000000000003	-139.067795130823
6.394960880279541	45.25848218528782	-0.7	0.0500000000000003	102.4584821852876	-96.40341987341276	-1.039076492892845e-12	80.38799999999991	-84.66000000000004	5.05043721578303e-13	2.071017320375504e-12	0	-114.0000000000003	-139.067795130823
6.401953935623169	45.47417953598188	-0.7	0.0500000000000003	102.6741795359816	-96.83422979867932	-1.039076492892845e-12	80.38799999999991	-84.66000000000004	5.05043721578303e-13	2.071017320375504e-12	0	-114.0000000000003	-139.067795130823
6.406954050064087	46.16701358610638	-0.7	0.0500000000000003	103.3670135861062	-98.21773536209207	-1.039076492892845e-12	80.38799999999991	-84.66000000000004	5.05043721578303e-13	2.071017320375504e-12	0	-114.0000000000003	-139.067795130823
6.41194486618042	46.6001240677171	-0.7	0.0500000000000003	103.8001240677169	-99.0847344568411	-1.039076492892845e-12	80.38799999999991	-84.66000000000004	5.05043721578303e-13	2.071017320375504e-12	0	-114.0000000000003	-139.067795130823
6.418953895568848	46.59934150519339	-0.7	0.0500000000000003	103.7993415051932	-97.86441093172954	-1.039076492892845e-12	80.38799999999991	-84.66000000000004	5.05043721578303e-13	2.071017320375504e-12	0	-114.0000000000003	-139.067795130823
6.422955989837646	46.99489097928316	-0.7	0.0500000000000003	104.194890979283	-98.65494928239758	-1.039076492892845e-12	80.38799999999991	-84.66000000000004	5.05043721578303e-13	2.071017320375504e-12	0	-114.0000000000003	-139.067795130823
6.427958011627197	46.99476045834142	-0.7	0.0500000000000003	104.1947604583412	-97.40054861327164	-1.039076492892845e-12	80.38799999999991	-84.66000000000004	5.05043721578303e-13	2.071017320375504e-12	0	-114.0000000000003	-139.067795130823
6.432960033416748	47.07433601175131	-0.7	0.0500000000000003	104.2743360117512	-97.55906708337916	-1.039076492892845e-12	80.38799999999991	-84.66000000000004	5.05043721578303e-13	2.071017320375504e-12	0	-114.0000000000003	-139.067795130823
6.451959133148193	47.09160184387939	-0.7	0.0500000000000003	104.2916018438792	-97.59391580540499	-1.039076492892845e-12	80.38799999999991	-84.66000000000004	5.05043721578303e-13	2.071017320375504e-12	0	-114.0000000000003	-139.067795130823
6.455965995788574	47.09278738609522	-0.7	0.0500000000000003	104.2927873860951	-96.28930780390004	-1.039076492892845e-12	80.38799999999991	-84.66000000000004	5.05043721578303e-13	2.071017320375504e-12	0	-114.0000000000003	-139.067795130823
6.46495795249939	47.09280401365982	-0.7	0.0500000000000003	104.2928040136597	-94.9626213580311	-1.039076492892845e-12	80.38799999999991	-84.66000000000004	5.05043721578303e-13	2.071017320375504e-12	0	-114.0000000000003	-139.067795130823
6.469931125640869	47.0330645974494	-0.7	0.0500000000000003	104.2330645974493	-94.84137495533049	-1.039076492892845e-12	80.38799999999991	-84.66000000000004	5.05043721578303e-13	2.071017320375504e-12	0	-114.0000000000003	-139.067795130823
6.473972082138061	47.02813761927163	-0.7	0.0500000000000003	104.2281376192716	-92.90085552060232	-1.039076492892845e-12	80.38799999999991	-84.66000000000004	5.05043721578303e-13	2.071017320375504e-12	0	-114.0000000000003	-139.067795130823
6.47795295715332	46.75636069002958	-0.7	0.0500000000000003	103.9563606900295	-92.35754241298059	-1.039076492892845e-12	80.38799999999991	-84.66000000000004	5.05043721578303e-13	2.071017320375504e-12	0	-114.0000000000003	-139.067795130823
6.490962982177734	46.75662877934688	-0.7	0.0500000000000003	103.9566287793468	-91.04746609905942	-1.039076492892845e-12	80.38799999999991	-84.66000000000004	5.05043721578303e-13	2.071017320375504e-12	0	-114.0000000000003	-139.067795130823
